<?xml version="1.0" encoding="UTF-8" standalone="no"?>
<!-- Created with Inkscape (http://www.inkscape.org/) -->
<svg xmlns:dc="http://purl.org/dc/elements/1.1/" xmlns:cc="http://creativecommons.org/ns#" xmlns:rdf="http://www.w3.org/1999/02/22-rdf-syntax-ns#" xmlns:svg="http://www.w3.org/2000/svg" xmlns="http://www.w3.org/2000/svg" xmlns:sodipodi="http://sodipodi.sourceforge.net/DTD/sodipodi-0.dtd" xmlns:inkscape="http://www.inkscape.org/namespaces/inkscape" width="114.686" height="98.785004" viewBox="0 0 114.68599 98.785" id="svg4267" version="1.1" inkscape:version="0.91 r13725" sodipodi:docname="fale-whatsapp-web.svg">
  <defs id="defs4269"/>
  <sodipodi:namedview id="base" pagecolor="#ffffff" bordercolor="#666666" borderopacity="1.0" inkscape:pageopacity="0.0" inkscape:pageshadow="2" inkscape:zoom="3.5245731" inkscape:cx="161.52647" inkscape:cy="45.550378" inkscape:document-units="px" inkscape:current-layer="layer1" showgrid="false" units="px" inkscape:window-width="1920" inkscape:window-height="1027" inkscape:window-x="1358" inkscape:window-y="-8" inkscape:window-maximized="1" showguides="true" inkscape:guide-bbox="true"/>
  <metadata id="metadata4272">
    <rdf:RDF>
      <cc:Work rdf:about="">
        <dc:format>image/svg+xml</dc:format>
        <dc:type rdf:resource="http://purl.org/dc/dcmitype/StillImage"/>
        <dc:title/>
      </cc:Work>
    </rdf:RDF>
  </metadata>
  <g inkscape:label="Camada 1" inkscape:groupmode="layer" id="layer1" transform="translate(0,-953.57711)">
    <g id="g4508" transform="translate(-3.1005858e-7,-3.283202)" style="fill:#ffffff">
      <g style="fill:#ffffff" transform="translate(-178.60593,-24.642128)" id="g4291">
        <g id="g4193" transform="translate(-40.96371,-39.741681)" style="fill:#ffffff">
          <path d="m 226.45717,1075.4235 -0.0627,0 q -0.19448,-0.056 -0.50816,-0.1129 -0.31368,-0.063 -0.55208,-0.063 -0.75911,0 -1.10415,0.3388 -0.33878,0.3325 -0.33878,1.2108 l 0,0.2384 2.12675,0 0,0.9912 -2.08911,0 0,6.0164 -1.17943,0 0,-6.0164 -0.79675,0 0,-0.9912 0.79675,0 0,-0.2322 q 0,-1.2484 0.62108,-1.9134 0.62109,-0.6713 1.79425,-0.6713 0.39524,0 0.70892,0.038 0.31995,0.038 0.58345,0.088 l 0,1.079 z" style="font-style:normal;font-weight:normal;font-size:medium;line-height:100%;font-family:sans-serif;letter-spacing:0px;word-spacing:0px;fill:#ffffff;fill-opacity:1;stroke:none;stroke-width:1px;stroke-linecap:butt;stroke-linejoin:miter;stroke-opacity:1" id="path4938" inkscape:connector-curvature="0"/>
          <path d="m 232.64921,1084.0435 -1.17316,0 0,-0.7466 q -0.15684,0.1067 -0.4266,0.3011 -0.26349,0.1883 -0.51444,0.3012 -0.29486,0.1443 -0.67755,0.2384 -0.38269,0.1004 -0.89712,0.1004 -0.94732,0 -1.60605,-0.6274 -0.65872,-0.6274 -0.65872,-1.5998 0,-0.7967 0.33877,-1.2861 0.34505,-0.4956 0.97868,-0.7779 0.63991,-0.2823 1.53704,-0.3827 0.89712,-0.1004 1.92599,-0.1505 l 0,-0.182 q 0,-0.4015 -0.14429,-0.665 -0.13802,-0.2635 -0.40151,-0.414 -0.25095,-0.1443 -0.60227,-0.1945 -0.35132,-0.05 -0.73401,-0.05 -0.46425,0 -1.03514,0.1255 -0.5709,0.1192 -1.17944,0.3513 l -0.0627,0 0,-1.1983 q 0.34505,-0.094 0.9975,-0.207 0.65246,-0.1129 1.28609,-0.1129 0.74029,0 1.28609,0.1254 0.55208,0.1192 0.95359,0.4141 0.39523,0.2886 0.60226,0.7466 0.20703,0.4579 0.20703,1.1355 l 0,4.7554 z m -1.17316,-1.7253 0,-1.9511 q -0.53953,0.031 -1.27354,0.094 -0.72774,0.063 -1.15434,0.182 -0.50816,0.1443 -0.82184,0.4517 -0.31368,0.3011 -0.31368,0.8344 0,0.6022 0.36386,0.9096 0.36387,0.3012 1.11043,0.3012 0.62109,0 1.13552,-0.2384 0.51444,-0.2447 0.95359,-0.5835 z" style="font-style:normal;font-weight:normal;font-size:medium;line-height:100%;font-family:sans-serif;letter-spacing:0px;word-spacing:0px;fill:#ffffff;fill-opacity:1;stroke:none;stroke-width:1px;stroke-linecap:butt;stroke-linejoin:miter;stroke-opacity:1" id="path4940" inkscape:connector-curvature="0"/>
          <path d="m 236.12479,1084.0435 -1.17944,0 0,-9.7618 1.17944,0 0,9.7618 z" style="font-style:normal;font-weight:normal;font-size:medium;line-height:100%;font-family:sans-serif;letter-spacing:0px;word-spacing:0px;fill:#ffffff;fill-opacity:1;stroke:none;stroke-width:1px;stroke-linecap:butt;stroke-linejoin:miter;stroke-opacity:1" id="path4942" inkscape:connector-curvature="0"/>
          <path d="m 244.28675,1080.662 -5.16318,0 q 0,0.6462 0.19448,1.1292 0.19449,0.4768 0.53326,0.7842 0.32623,0.3012 0.77165,0.4517 0.4517,0.1506 0.99123,0.1506 0.71519,0 1.43666,-0.2823 0.72774,-0.2886 1.03514,-0.5646 l 0.0627,0 0,1.2861 q -0.59599,0.2509 -1.21708,0.4203 -0.62108,0.1694 -1.3049,0.1694 -1.74407,0 -2.72275,-0.9411 -0.97868,-0.9473 -0.97868,-2.6851 0,-1.7189 0.93477,-2.729 0.94104,-1.01 2.4718,-1.01 1.41783,0 2.18321,0.8281 0.77165,0.8281 0.77165,2.3526 l 0,0.6399 z m -1.14807,-0.9034 q -0.006,-0.9285 -0.47052,-1.4367 -0.45797,-0.5081 -1.39901,-0.5081 -0.94732,0 -1.51194,0.5583 -0.55835,0.5584 -0.63364,1.3865 l 4.01511,0 z" style="font-style:normal;font-weight:normal;font-size:medium;line-height:100%;font-family:sans-serif;letter-spacing:0px;word-spacing:0px;fill:#ffffff;fill-opacity:1;stroke:none;stroke-width:1px;stroke-linecap:butt;stroke-linejoin:miter;stroke-opacity:1" id="path4944" inkscape:connector-curvature="0"/>
          <path d="m 255.77371,1083.6043 q -0.58972,0.2823 -1.12297,0.4392 -0.52698,0.1568 -1.12298,0.1568 -0.7591,0 -1.39274,-0.2196 -0.63363,-0.2258 -1.08533,-0.6775 -0.45797,-0.4517 -0.70892,-1.1418 -0.25094,-0.6901 -0.25094,-1.6123 0,-1.719 0.94104,-2.6977 0.94731,-0.9787 2.49689,-0.9787 0.60227,0 1.17944,0.1694 0.58345,0.1694 1.06651,0.4141 l 0,1.3112 -0.0627,0 q -0.53953,-0.4204 -1.1167,-0.6462 -0.5709,-0.2259 -1.1167,-0.2259 -1.00378,0 -1.58722,0.6776 -0.57717,0.6713 -0.57717,1.9762 0,1.2672 0.56462,1.9511 0.5709,0.6775 1.59977,0.6775 0.3576,0 0.72774,-0.094 0.37014,-0.094 0.665,-0.2447 0.25722,-0.1317 0.48307,-0.276 0.22585,-0.1506 0.35759,-0.2572 l 0.0627,0 0,1.2986 z" style="font-style:normal;font-weight:normal;font-size:medium;line-height:100%;font-family:sans-serif;letter-spacing:0px;word-spacing:0px;fill:#ffffff;fill-opacity:1;stroke:none;stroke-width:1px;stroke-linecap:butt;stroke-linejoin:miter;stroke-opacity:1" id="path4946" inkscape:connector-curvature="0"/>
          <path d="m 263.2644,1080.5428 q 0,1.7127 -0.87831,2.7039 -0.8783,0.9913 -2.3526,0.9913 -1.48684,0 -2.36515,-0.9913 -0.87203,-0.9912 -0.87203,-2.7039 0,-1.7127 0.87203,-2.7039 0.87831,-0.9975 2.36515,-0.9975 1.4743,0 2.3526,0.9975 0.87831,0.9912 0.87831,2.7039 z m -1.21708,0 q 0,-1.3614 -0.53326,-2.0201 -0.53325,-0.665 -1.48057,-0.665 -0.95986,0 -1.49312,0.665 -0.52698,0.6587 -0.52698,2.0201 0,1.3175 0.53326,2.0013 0.53325,0.6775 1.48684,0.6775 0.94104,0 1.4743,-0.6712 0.53953,-0.6776 0.53953,-2.0076 z" style="font-style:normal;font-weight:normal;font-size:medium;line-height:100%;font-family:sans-serif;letter-spacing:0px;word-spacing:0px;fill:#ffffff;fill-opacity:1;stroke:none;stroke-width:1px;stroke-linecap:butt;stroke-linejoin:miter;stroke-opacity:1" id="path4948" inkscape:connector-curvature="0"/>
          <path d="m 270.95583,1084.0435 -1.17944,0 0,-3.99 q 0,-0.4831 -0.0565,-0.9034 -0.0565,-0.4266 -0.20702,-0.665 -0.15684,-0.2635 -0.4517,-0.389 -0.29486,-0.1317 -0.76538,-0.1317 -0.48307,0 -1.01005,0.2383 -0.52699,0.2384 -1.01005,0.6086 l 0,5.2322 -1.17944,0 0,-7.0076 1.17944,0 0,0.7779 q 0.55207,-0.458 1.14179,-0.7152 0.58972,-0.2572 1.21081,-0.2572 1.13552,0 1.73151,0.6838 0.59599,0.6838 0.59599,1.9699 l 0,4.5484 z" style="font-style:normal;font-weight:normal;font-size:medium;line-height:100%;font-family:sans-serif;letter-spacing:0px;word-spacing:0px;fill:#ffffff;fill-opacity:1;stroke:none;stroke-width:1px;stroke-linecap:butt;stroke-linejoin:miter;stroke-opacity:1" id="path4950" inkscape:connector-curvature="0"/>
          <path d="m 279.19935,1080.5428 q 0,1.7127 -0.87831,2.7039 -0.8783,0.9913 -2.3526,0.9913 -1.48684,0 -2.36515,-0.9913 -0.87203,-0.9912 -0.87203,-2.7039 0,-1.7127 0.87203,-2.7039 0.87831,-0.9975 2.36515,-0.9975 1.4743,0 2.3526,0.9975 0.87831,0.9912 0.87831,2.7039 z m -1.21708,0 q 0,-1.3614 -0.53326,-2.0201 -0.53326,-0.665 -1.48057,-0.665 -0.95986,0 -1.49312,0.665 -0.52698,0.6587 -0.52698,2.0201 0,1.3175 0.53326,2.0013 0.53325,0.6775 1.48684,0.6775 0.94104,0 1.4743,-0.6712 0.53953,-0.6776 0.53953,-2.0076 z" style="font-style:normal;font-weight:normal;font-size:medium;line-height:100%;font-family:sans-serif;letter-spacing:0px;word-spacing:0px;fill:#ffffff;fill-opacity:1;stroke:none;stroke-width:1px;stroke-linecap:butt;stroke-linejoin:miter;stroke-opacity:1" id="path4952" inkscape:connector-curvature="0"/>
          <path d="m 286.03757,1082.0234 q 0,0.9598 -0.79674,1.5746 -0.79048,0.6149 -2.1644,0.6149 -0.77792,0 -1.43038,-0.182 -0.64618,-0.1882 -1.08533,-0.4078 l 0,-1.3237 0.0627,0 q 0.55835,0.4203 1.24217,0.6713 0.68382,0.2447 1.31118,0.2447 0.77793,0 1.21708,-0.251 0.43915,-0.2509 0.43915,-0.7905 0,-0.414 -0.23839,-0.6273 -0.2384,-0.2133 -0.91595,-0.3639 -0.25094,-0.057 -0.65873,-0.1317 -0.40151,-0.075 -0.73401,-0.1632 -0.92222,-0.2446 -1.31118,-0.7151 -0.38269,-0.4768 -0.38269,-1.1669 0,-0.4329 0.17566,-0.8156 0.18193,-0.3827 0.5458,-0.6838 0.35132,-0.2949 0.89085,-0.4643 0.54581,-0.1756 1.21708,-0.1756 0.62736,0 1.26727,0.1568 0.64618,0.1506 1.07279,0.3702 l 0,1.2609 -0.0627,0 q -0.4517,-0.3325 -1.09788,-0.5583 -0.64618,-0.2321 -1.26727,-0.2321 -0.64618,0 -1.0916,0.2509 -0.44543,0.2447 -0.44543,0.734 0,0.4329 0.26976,0.6525 0.2635,0.2196 0.85321,0.3576 0.32623,0.075 0.72774,0.1505 0.40779,0.075 0.67755,0.1381 0.82184,0.1882 1.26727,0.6461 0.44542,0.4643 0.44542,1.2297 z" style="font-style:normal;font-weight:normal;font-size:medium;line-height:100%;font-family:sans-serif;letter-spacing:0px;word-spacing:0px;fill:#ffffff;fill-opacity:1;stroke:none;stroke-width:1px;stroke-linecap:butt;stroke-linejoin:miter;stroke-opacity:1" id="path4954" inkscape:connector-curvature="0"/>
          <path d="m 292.91344,1083.6043 q -0.58972,0.2823 -1.12298,0.4392 -0.52698,0.1568 -1.12297,0.1568 -0.75911,0 -1.39274,-0.2196 -0.63363,-0.2258 -1.08533,-0.6775 -0.45798,-0.4517 -0.70892,-1.1418 -0.25095,-0.6901 -0.25095,-1.6123 0,-1.719 0.94104,-2.6977 0.94732,-0.9787 2.4969,-0.9787 0.60226,0 1.17944,0.1694 0.58344,0.1694 1.06651,0.4141 l 0,1.3112 -0.0627,0 q -0.53953,-0.4204 -1.1167,-0.6462 -0.5709,-0.2259 -1.1167,-0.2259 -1.00378,0 -1.58722,0.6776 -0.57717,0.6713 -0.57717,1.9762 0,1.2672 0.56462,1.9511 0.5709,0.6775 1.59977,0.6775 0.3576,0 0.72774,-0.094 0.37014,-0.094 0.665,-0.2447 0.25722,-0.1317 0.48307,-0.276 0.22585,-0.1506 0.35759,-0.2572 l 0.0627,0 0,1.2986 z" style="font-style:normal;font-weight:normal;font-size:medium;line-height:100%;font-family:sans-serif;letter-spacing:0px;word-spacing:0px;fill:#ffffff;fill-opacity:1;stroke:none;stroke-width:1px;stroke-linecap:butt;stroke-linejoin:miter;stroke-opacity:1" id="path4956" inkscape:connector-curvature="0"/>
          <path d="m 300.40412,1080.5428 q 0,1.7127 -0.8783,2.7039 -0.87831,0.9913 -2.3526,0.9913 -1.48685,0 -2.36515,-0.9913 -0.87203,-0.9912 -0.87203,-2.7039 0,-1.7127 0.87203,-2.7039 0.8783,-0.9975 2.36515,-0.9975 1.47429,0 2.3526,0.9975 0.8783,0.9912 0.8783,2.7039 z m -1.21708,0 q 0,-1.3614 -0.53325,-2.0201 -0.53326,-0.665 -1.48057,-0.665 -0.95986,0 -1.49312,0.665 -0.52698,0.6587 -0.52698,2.0201 0,1.3175 0.53325,2.0013 0.53326,0.6775 1.48685,0.6775 0.94104,0 1.47429,-0.6712 0.53953,-0.6776 0.53953,-2.0076 z" style="font-style:normal;font-weight:normal;font-size:medium;line-height:100%;font-family:sans-serif;letter-spacing:0px;word-spacing:0px;fill:#ffffff;fill-opacity:1;stroke:none;stroke-width:1px;stroke-linecap:butt;stroke-linejoin:miter;stroke-opacity:1" id="path4958" inkscape:connector-curvature="0"/>
          <path d="m 312.91996,1080.455 q 0,0.8532 -0.24467,1.5621 -0.24467,0.7026 -0.69009,1.192 -0.41406,0.4642 -0.97869,0.7214 -0.55835,0.251 -1.18571,0.251 -0.5458,0 -0.99123,-0.1192 -0.43915,-0.1192 -0.89712,-0.3701 l 0,2.936 -1.17944,0 0,-9.5923 1.17944,0 0,0.734 q 0.47052,-0.3953 1.05396,-0.6588 0.58972,-0.2697 1.25472,-0.2697 1.26727,0 1.96992,0.9598 0.70891,0.9536 0.70891,2.6538 z m -1.21708,0.031 q 0,-1.2672 -0.43288,-1.8946 -0.43287,-0.6273 -1.33,-0.6273 -0.50816,0 -1.0226,0.2195 -0.51443,0.2196 -0.98495,0.5772 l 0,3.9712 q 0.50189,0.2258 0.85948,0.3074 0.36387,0.082 0.82184,0.082 0.98496,0 1.53704,-0.665 0.55207,-0.6651 0.55207,-1.97 z" style="font-style:normal;font-weight:normal;font-size:medium;line-height:100%;font-family:sans-serif;letter-spacing:0px;word-spacing:0px;fill:#ffffff;fill-opacity:1;stroke:none;stroke-width:1px;stroke-linecap:butt;stroke-linejoin:miter;stroke-opacity:1" id="path4960" inkscape:connector-curvature="0"/>
          <path d="m 320.62395,1080.662 -5.16318,0 q 0,0.6462 0.19449,1.1292 0.19448,0.4768 0.53325,0.7842 0.32623,0.3012 0.77165,0.4517 0.4517,0.1506 0.99123,0.1506 0.71519,0 1.43666,-0.2823 0.72774,-0.2886 1.03514,-0.5646 l 0.0627,0 0,1.2861 q -0.59599,0.2509 -1.21708,0.4203 -0.62109,0.1694 -1.30491,0.1694 -1.74406,0 -2.72274,-0.9411 -0.97868,-0.9473 -0.97868,-2.6851 0,-1.7189 0.93476,-2.729 0.94104,-1.01 2.4718,-1.01 1.41784,0 2.18322,0.8281 0.77165,0.8281 0.77165,2.3526 l 0,0.6399 z m -1.14807,-0.9034 q -0.006,-0.9285 -0.47052,-1.4367 -0.45797,-0.5081 -1.39901,-0.5081 -0.94732,0 -1.51194,0.5583 -0.55835,0.5584 -0.63364,1.3865 l 4.01511,0 z" style="font-style:normal;font-weight:normal;font-size:medium;line-height:100%;font-family:sans-serif;letter-spacing:0px;word-spacing:0px;fill:#ffffff;fill-opacity:1;stroke:none;stroke-width:1px;stroke-linecap:butt;stroke-linejoin:miter;stroke-opacity:1" id="path4962" inkscape:connector-curvature="0"/>
          <path d="m 323.60391,1084.0435 -1.17944,0 0,-9.7618 1.17944,0 0,9.7618 z" style="font-style:normal;font-weight:normal;font-size:medium;line-height:100%;font-family:sans-serif;letter-spacing:0px;word-spacing:0px;fill:#ffffff;fill-opacity:1;stroke:none;stroke-width:1px;stroke-linecap:butt;stroke-linejoin:miter;stroke-opacity:1" id="path4964" inkscape:connector-curvature="0"/>
          <path d="m 331.87251,1080.5428 q 0,1.7127 -0.8783,2.7039 -0.8783,0.9913 -2.3526,0.9913 -1.48684,0 -2.36515,-0.9913 -0.87203,-0.9912 -0.87203,-2.7039 0,-1.7127 0.87203,-2.7039 0.87831,-0.9975 2.36515,-0.9975 1.4743,0 2.3526,0.9975 0.8783,0.9912 0.8783,2.7039 z m -1.21707,0 q 0,-1.3614 -0.53326,-2.0201 -0.53326,-0.665 -1.48057,-0.665 -0.95986,0 -1.49312,0.665 -0.52698,0.6587 -0.52698,2.0201 0,1.3175 0.53326,2.0013 0.53325,0.6775 1.48684,0.6775 0.94104,0 1.4743,-0.6712 0.53953,-0.6776 0.53953,-2.0076 z" style="font-style:normal;font-weight:normal;font-size:medium;line-height:100%;font-family:sans-serif;letter-spacing:0px;word-spacing:0px;fill:#ffffff;fill-opacity:1;stroke:none;stroke-width:1px;stroke-linecap:butt;stroke-linejoin:miter;stroke-opacity:1" id="path4966" inkscape:connector-curvature="0"/>
        </g>
        <g id="g4210" transform="translate(-42.56208,-39.741681)" style="fill:#ffffff">
          <path d="m 243.35736,1088.2585 -3.89948,14.4796 -4.13286,0 -2.59641,-9.4327 -2.52834,9.4327 -4.13287,0 -3.89947,-14.4796 3.89947,0 2.22689,9.9675 2.66448,-9.9675 3.72444,0 2.53806,9.9675 2.33385,-9.9675 3.80224,0 z" style="font-style:normal;font-variant:normal;font-weight:bold;font-stretch:normal;font-size:19.91553688px;line-height:100%;font-family:sans-serif;-inkscape-font-specification:'sans-serif Bold';letter-spacing:0px;word-spacing:0px;fill:#ffffff;fill-opacity:1;stroke:none;stroke-width:1px;stroke-linecap:butt;stroke-linejoin:miter;stroke-opacity:1" id="path4968" inkscape:connector-curvature="0"/>
          <path d="m 256.63114,1102.7381 -3.52023,0 0,-5.4165 q 0,-0.6613 -0.0681,-1.3128 -0.0681,-0.6613 -0.23338,-0.9724 -0.19449,-0.3598 -0.57374,-0.5251 -0.36953,-0.1654 -1.04051,-0.1654 -0.47649,0 -0.97244,0.1556 -0.48622,0.1556 -1.05995,0.496 l 0,7.7406 -3.50078,0 0,-15.1312 3.50078,0 0,5.4165 q 0.93354,-0.7293 1.78928,-1.1183 0.86547,-0.389 1.91571,-0.389 1.76983,0 2.76172,1.0308 1.00161,1.0308 1.00161,3.0827 l 0,7.1085 z" style="font-style:normal;font-variant:normal;font-weight:bold;font-stretch:normal;font-size:19.91553688px;line-height:100%;font-family:sans-serif;-inkscape-font-specification:'sans-serif Bold';letter-spacing:0px;word-spacing:0px;fill:#ffffff;fill-opacity:1;stroke:none;stroke-width:1px;stroke-linecap:butt;stroke-linejoin:miter;stroke-opacity:1" id="path4970" inkscape:connector-curvature="0"/>
          <path d="m 266.47222,1099.8888 0,-2.2755 q -0.70988,0.058 -1.53646,0.1653 -0.82657,0.097 -1.25444,0.2334 -0.52512,0.1653 -0.80712,0.4862 -0.27229,0.3112 -0.27229,0.8266 0,0.3404 0.0584,0.5543 0.0584,0.2139 0.29173,0.4084 0.22366,0.1945 0.53484,0.2918 0.31118,0.088 0.97244,0.088 0.52512,0 1.05996,-0.214 0.54457,-0.2139 0.95299,-0.564 z m 0,1.6921 q -0.28201,0.2139 -0.70016,0.5154 -0.41815,0.3014 -0.78767,0.4765 -0.5154,0.2333 -1.06969,0.3403 -0.55429,0.1167 -1.21554,0.1167 -1.5559,0 -2.60614,-0.9627 -1.05023,-0.9627 -1.05023,-2.4603 0,-1.1961 0.53484,-1.9546 0.53484,-0.7585 1.517,-1.1961 0.97244,-0.4376 2.41165,-0.6223 1.43921,-0.1848 2.98539,-0.2723 l 0,-0.058 q 0,-0.9043 -0.73906,-1.2447 -0.73905,-0.3501 -2.17826,-0.3501 -0.86547,0 -1.84763,0.3112 -0.98216,0.3015 -1.41004,0.4668 l -0.3209,0 0,-2.6353 q 0.55429,-0.1459 1.79901,-0.3404 1.25444,-0.2042 2.50889,-0.2042 2.98539,0 4.3079,0.9238 1.33224,0.9141 1.33224,2.8784 l 0,7.4295 -3.4716,0 0,-1.1572 z" style="font-style:normal;font-variant:normal;font-weight:bold;font-stretch:normal;font-size:19.91553688px;line-height:100%;font-family:sans-serif;-inkscape-font-specification:'sans-serif Bold';letter-spacing:0px;word-spacing:0px;fill:#ffffff;fill-opacity:1;stroke:none;stroke-width:1px;stroke-linecap:butt;stroke-linejoin:miter;stroke-opacity:1" id="path4972" inkscape:connector-curvature="0"/>
          <path d="m 280.1447,1102.6408 q -0.56401,0.1459 -1.1961,0.2237 -0.63208,0.087 -1.54618,0.087 -2.04212,0 -3.04373,-0.8266 -0.99189,-0.8265 -0.99189,-2.8298 l 0,-5.1053 -1.4392,0 0,-2.3727 1.4392,0 0,-3.1215 3.50078,0 0,3.1215 3.27712,0 0,2.3727 -3.27712,0 0,3.8704 q 0,0.5737 0.01,1.0016 0.01,0.4278 0.15559,0.7682 0.13614,0.3403 0.47649,0.5446 0.35008,0.1944 1.01134,0.1944 0.27228,0 0.70988,-0.1167 0.44732,-0.1166 0.62236,-0.2139 l 0.29173,0 0,2.4019 z" style="font-style:normal;font-variant:normal;font-weight:bold;font-stretch:normal;font-size:19.91553688px;line-height:100%;font-family:sans-serif;-inkscape-font-specification:'sans-serif Bold';letter-spacing:0px;word-spacing:0px;fill:#ffffff;fill-opacity:1;stroke:none;stroke-width:1px;stroke-linecap:butt;stroke-linejoin:miter;stroke-opacity:1" id="path4974" inkscape:connector-curvature="0"/>
          <path d="m 291.71672,1099.2762 q 0,1.692 -1.51701,2.7325 -1.517,1.0308 -4.15231,1.0308 -1.45866,0 -2.64503,-0.2722 -1.18638,-0.2723 -1.90598,-0.603 l 0,-2.8784 0.3209,0 q 0.26256,0.1848 0.60292,0.4084 0.35007,0.214 0.98216,0.4668 0.54456,0.2237 1.235,0.389 0.69043,0.1556 1.4781,0.1556 1.03079,0 1.52673,-0.2237 0.49594,-0.2334 0.49594,-0.6807 0,-0.3987 -0.29173,-0.5737 -0.29173,-0.1848 -1.10858,-0.3501 -0.38897,-0.087 -1.05996,-0.1848 -0.66125,-0.1069 -1.20582,-0.2528 -1.48783,-0.389 -2.20743,-1.2058 -0.71961,-0.8266 -0.71961,-2.0519 0,-1.5753 1.48783,-2.6158 1.49756,-1.0503 4.08424,-1.0503 1.22528,0 2.34358,0.2529 1.12803,0.2431 1.76011,0.5251 l 0,2.7617 -0.30145,0 q -0.77795,-0.5348 -1.77957,-0.8655 -0.99188,-0.3403 -2.01294,-0.3403 -0.84602,0 -1.42949,0.2334 -0.57374,0.2334 -0.57374,0.6612 0,0.389 0.26256,0.5932 0.26256,0.2042 1.235,0.4084 0.53484,0.107 1.14748,0.214 0.62236,0.097 1.24472,0.2528 1.38086,0.3598 2.04212,1.1378 0.66126,0.7682 0.66126,1.9254 z" style="font-style:normal;font-variant:normal;font-weight:bold;font-stretch:normal;font-size:19.91553688px;line-height:100%;font-family:sans-serif;-inkscape-font-specification:'sans-serif Bold';letter-spacing:0px;word-spacing:0px;fill:#ffffff;fill-opacity:1;stroke:none;stroke-width:1px;stroke-linecap:butt;stroke-linejoin:miter;stroke-opacity:1" id="path4976" inkscape:connector-curvature="0"/>
          <path d="m 307.62581,1102.7381 -3.86058,0 -1.00161,-2.9271 -5.36786,0 -1.00161,2.9271 -3.76334,0 5.34841,-14.4796 4.29818,0 5.34841,14.4796 z m -5.76656,-5.5818 -1.77956,-5.1928 -1.77956,5.1928 3.55912,0 z" style="font-style:normal;font-variant:normal;font-weight:bold;font-stretch:normal;font-size:19.91553688px;line-height:100%;font-family:sans-serif;-inkscape-font-specification:'sans-serif Bold';letter-spacing:0px;word-spacing:0px;fill:#ffffff;fill-opacity:1;stroke:none;stroke-width:1px;stroke-linecap:butt;stroke-linejoin:miter;stroke-opacity:1" id="path4978" inkscape:connector-curvature="0"/>
          <path d="m 320.92876,1097.1271 q 0,1.3517 -0.41814,2.4603 -0.40843,1.1086 -1.07941,1.8282 -0.70016,0.7585 -1.58508,1.1474 -0.88491,0.389 -1.89625,0.389 -0.93354,0 -1.58507,-0.2042 -0.65154,-0.1945 -1.33225,-0.5543 l 0,4.551 -3.50077,0 0,-14.9269 3.50077,0 0,1.1377 q 0.80713,-0.6418 1.64343,-1.0405 0.84602,-0.3987 1.94487,-0.3987 2.04212,0 3.17015,1.4976 1.13775,1.4976 1.13775,4.1134 z m -3.60774,0.068 q 0,-1.5948 -0.54457,-2.3144 -0.54456,-0.7196 -1.72121,-0.7196 -0.49595,0 -1.02106,0.1556 -0.52512,0.1458 -1.00162,0.4278 l 0,5.4943 q 0.35008,0.1362 0.74878,0.1751 0.3987,0.039 0.78768,0.039 1.39058,0 2.07129,-0.8071 0.68071,-0.8168 0.68071,-2.4505 z" style="font-style:normal;font-variant:normal;font-weight:bold;font-stretch:normal;font-size:19.91553688px;line-height:100%;font-family:sans-serif;-inkscape-font-specification:'sans-serif Bold';letter-spacing:0px;word-spacing:0px;fill:#ffffff;fill-opacity:1;stroke:none;stroke-width:1px;stroke-linecap:butt;stroke-linejoin:miter;stroke-opacity:1" id="path4980" inkscape:connector-curvature="0"/>
          <path d="m 334.85408,1097.1271 q 0,1.3517 -0.41815,2.4603 -0.40842,1.1086 -1.07941,1.8282 -0.70015,0.7585 -1.58507,1.1474 -0.88492,0.389 -1.89625,0.389 -0.93355,0 -1.58508,-0.2042 -0.65153,-0.1945 -1.33224,-0.5543 l 0,4.551 -3.50078,0 0,-14.9269 3.50078,0 0,1.1377 q 0.80712,-0.6418 1.64342,-1.0405 0.84602,-0.3987 1.94488,-0.3987 2.04212,0 3.17015,1.4976 1.13775,1.4976 1.13775,4.1134 z m -3.60775,0.068 q 0,-1.5948 -0.54456,-2.3144 -0.54457,-0.7196 -1.72122,-0.7196 -0.49594,0 -1.02106,0.1556 -0.52511,0.1458 -1.00161,0.4278 l 0,5.4943 q 0.35008,0.1362 0.74878,0.1751 0.3987,0.039 0.78767,0.039 1.39059,0 2.0713,-0.8071 0.6807,-0.8168 0.6807,-2.4505 z" style="font-style:normal;font-variant:normal;font-weight:bold;font-stretch:normal;font-size:19.91553688px;line-height:100%;font-family:sans-serif;-inkscape-font-specification:'sans-serif Bold';letter-spacing:0px;word-spacing:0px;fill:#ffffff;fill-opacity:1;stroke:none;stroke-width:1px;stroke-linecap:butt;stroke-linejoin:miter;stroke-opacity:1" id="path4982" inkscape:connector-curvature="0"/>
        </g>
        <path inkscape:connector-curvature="0" style="fill:#ffffff;fill-opacity:1" d="m 281.99609,31.048828 c 0.26135,1.07881 0.42381,2.192938 0.48633,3.335938 3.0939,2.4432 5.08789,6.22855 5.08789,10.46875 0,2.6918 -0.78969,5.206518 -2.18945,7.324218 l 1.61523,5.13086 -4.91797,-1.652344 c -2.18936,1.6151 -4.8428,2.550781 -7.75,2.550781 -3.80399,0 -7.22694,-1.634975 -9.63867,-4.234375 -0.31343,0.016 -0.62413,0.04687 -0.9414,0.04687 -0.80293,0 -1.59372,-0.05049 -2.37305,-0.15039 2.83713,4.152 7.58711,6.873862 12.98828,6.851562 2.94308,0 5.7425,-0.828072 8.11133,-2.263672 l 8.43359,2.873047 -2.83593,-8.759766 c 1.25621,-2.297 1.97461,-4.916087 1.97461,-7.679687 0,-5.947 -3.24852,-11.125887 -8.05079,-13.841797 z" transform="translate(-3.8146973e-6,966.8611)" id="path4220"/>
        <path inkscape:connector-curvature="0" d="m 281.1596,1001.1176 c 0,10.2852 -8.41518,18.6154 -18.78539,18.6154 -3.27256,0 -6.37513,-0.85 -9.09518,-2.3376 l -10.37022,3.3576 3.40008,-9.9877 c -1.70004,-2.8051 -2.67756,-6.1201 -2.67756,-9.6052 -0.0425,-10.32771 8.37267,-18.65789 18.74288,-18.65789 10.37021,0 18.78539,8.33018 18.78539,18.61539 z m -18.78539,-15.64032 c -8.71268,0 -15.76782,7.01264 -15.76782,15.64032 0,3.4426 1.10503,6.5876 3.01756,9.1802 l -1.95504,5.8226 6.07762,-1.9125 c 2.50755,1.6575 5.48262,2.5925 8.67018,2.5925 8.67018,0 15.76783,-7.0126 15.76783,-15.6828 0,-8.67018 -7.09765,-15.64032 -15.81033,-15.64032 z m 9.4777,19.93292 c -0.1275,-0.17 -0.42501,-0.2975 -0.89252,-0.5525 -0.46751,-0.2125 -2.72006,-1.3176 -3.14506,-1.4876 -0.42502,-0.17 -0.72252,-0.2125 -1.02002,0.2125 -0.29752,0.4676 -1.19003,1.4876 -1.44503,1.7851 -0.25502,0.2975 -0.55252,0.34 -0.97752,0.1275 -0.46752,-0.2125 -1.95505,-0.7225 -3.69758,-2.2526 -1.36003,-1.19 -2.29505,-2.72 -2.55005,-3.145 -0.25501,-0.46753 -0.0425,-0.72255 0.2125,-0.93505 0.2125,-0.2125 0.46752,-0.55251 0.68002,-0.80751 0.2125,-0.25501 0.2975,-0.46751 0.46751,-0.76502 0.17,-0.2975 0.085,-0.55252 -0.0425,-0.80752 -0.12752,-0.2125 -1.02003,-2.46505 -1.40253,-3.40006 -0.38252,-0.89252 -0.76502,-0.76502 -1.02003,-0.76502 -0.25501,0 -0.59501,-0.0425 -0.89252,-0.0425 -0.2975,0 -0.80752,0.1275 -1.23252,0.55251 -0.42501,0.4675 -1.61503,1.57252 -1.61503,3.82507 0,2.25255 1.65753,4.4201 1.87003,4.7176 0.2125,0.2975 3.18757,5.0576 7.86266,6.8851 4.6751,1.8275 4.6751,1.2325 5.52512,1.1475 0.85001,-0.085 2.72005,-1.105 3.10256,-2.1675 0.34,-1.02 0.34,-1.9126 0.2125,-2.1251 z" id="path4214" style="fill:#ffffff;fill-opacity:1;stroke:#ffffff;stroke-width:0;stroke-miterlimit:4;stroke-dasharray:none;stroke-opacity:1"/>
      </g>
      <g id="text4301" style="font-style:normal;font-variant:normal;font-weight:normal;font-stretch:normal;font-size:6.87417889px;line-height:125%;font-family:sans-serif;-inkscape-font-specification:sans-serif;text-align:end;letter-spacing:0px;word-spacing:0px;text-anchor:end;fill:#ffffff;fill-opacity:1;stroke:none;stroke-width:1px;stroke-linecap:butt;stroke-linejoin:miter;stroke-opacity:1" transform="matrix(1.6571453,0,0,1.6568801,-74.693192,-687.4749)">
        <path id="path4430" style="fill:#ffffff" d="m 104.58077,1046.4484 -1.29898,4.9979 -0.74851,0 -1.05059,-4.1487 -1.0271,4.1487 -0.731723,0 -1.322474,-4.9979 0.681376,0 1.050591,4.1554 1.03382,-4.1554 0.67466,0 1.04388,4.1957 1.04388,-4.1957 0.65117,0 z" inkscape:connector-curvature="0"/>
        <path id="path4432" style="fill:#ffffff" d="m 108.85028,1051.4463 -3.29276,0 0,-4.9979 3.29276,0 0,0.5908 -2.62817,0 0,1.3694 2.62817,0 0,0.5908 -2.62817,0 0,1.8561 2.62817,0 0,0.5908 z" inkscape:connector-curvature="0"/>
        <path id="path4434" style="fill:#ffffff" d="m 113.67697,1049.909 q 0,0.3726 -0.14097,0.6579 -0.14098,0.2853 -0.37929,0.4699 -0.28195,0.2215 -0.62096,0.3155 -0.33565,0.094 -0.85591,0.094 l -1.77225,0 0,-4.9979 1.48023,0 q 0.54711,0 0.81899,0.04 0.27188,0.04 0.52026,0.1678 0.27524,0.1443 0.39943,0.3726 0.12419,0.2249 0.12419,0.5404 0,0.3558 -0.18125,0.6075 -0.18125,0.2484 -0.48334,0.3995 l 0,0.027 q 0.50684,0.1041 0.79885,0.4464 0.29202,0.339 0.29202,0.8593 z m -1.11772,-2.2522 q 0,-0.1813 -0.0604,-0.3055 -0.0604,-0.1242 -0.19468,-0.2014 -0.15776,-0.091 -0.38264,-0.1107 -0.22489,-0.024 -0.55719,-0.024 l -0.79214,0 0,1.4433 0.85927,0 q 0.31216,0 0.49677,-0.03 0.18461,-0.034 0.34237,-0.1343 0.15775,-0.1007 0.22153,-0.2584 0.0671,-0.1612 0.0671,-0.3793 z m 0.42628,2.279 q 0,-0.302 -0.0906,-0.4799 -0.0906,-0.1779 -0.32894,-0.3021 -0.16111,-0.084 -0.39271,-0.1074 -0.22825,-0.027 -0.55719,-0.027 l -1.04388,0 0,1.8595 0.87941,0 q 0.43635,0 0.71494,-0.044 0.2786,-0.047 0.45649,-0.1678 0.18797,-0.1309 0.27524,-0.2988 0.0873,-0.1678 0.0873,-0.433 z" inkscape:connector-curvature="0"/>
      </g>
    </g>
  </g>
</svg>