<?xml version="1.0" encoding="UTF-8" standalone="no"?>
<!-- Created with Inkscape (http://www.inkscape.org/) -->
<svg xmlns:dc="http://purl.org/dc/elements/1.1/" xmlns:cc="http://creativecommons.org/ns#" xmlns:rdf="http://www.w3.org/1999/02/22-rdf-syntax-ns#" xmlns:svg="http://www.w3.org/2000/svg" xmlns="http://www.w3.org/2000/svg" xmlns:sodipodi="http://sodipodi.sourceforge.net/DTD/sodipodi-0.dtd" xmlns:inkscape="http://www.inkscape.org/namespaces/inkscape" id="svg4267" height="50" width="165.24" version="1.1" viewBox="0 0 165.242 50.000001" inkscape:version="0.91 r13725" sodipodi:docname="fale-whatsapp-branco-compressor.svg">
  <defs id="defs34"/>
  <sodipodi:namedview pagecolor="#ffffff" bordercolor="#666666" borderopacity="1" objecttolerance="10" gridtolerance="10" guidetolerance="10" inkscape:pageopacity="0" inkscape:pageshadow="2" inkscape:window-width="1366" inkscape:window-height="715" id="namedview32" showgrid="false" inkscape:zoom="4.472133" inkscape:cx="80.778888" inkscape:cy="22.55365" inkscape:window-x="-8" inkscape:window-y="-8" inkscape:window-maximized="1" inkscape:current-layer="svg4267"/>
  <metadata id="metadata4272">
    <rdf:RDF>
      <cc:Work rdf:about="">
        <dc:format>image/svg+xml</dc:format>
        <dc:type rdf:resource="http://purl.org/dc/dcmitype/StillImage"/>
        <dc:title/>
      </cc:Work>
    </rdf:RDF>
  </metadata>
  <g id="layer1" fill="#ccc" transform="translate(0 -1002.4)" style="fill:#ffffff">
    <g id="text4159" style="fill:#ffffff">
      <path id="path4938" d="m55.845 1014.1h-0.06274q-0.19448-0.056-0.50816-0.1129-0.31368-0.063-0.55208-0.063-0.75911 0-1.1042 0.3388-0.33878 0.3325-0.33878 1.2108v0.2384h2.1268v0.9912h-2.0891v6.0164h-1.1794v-6.0164h-0.79675v-0.9912h0.79675v-0.2322q0-1.2484 0.62109-1.9134 0.62109-0.6713 1.7942-0.6713 0.39524 0 0.70892 0.038 0.31995 0.038 0.58344 0.088v1.079z" style="fill:#ffffff"/>
      <path id="path4940" d="m62.037 1022.7h-1.1732v-0.7466q-0.15684 0.1067-0.4266 0.3011-0.26349 0.1883-0.51444 0.3012-0.29486 0.1443-0.67755 0.2384-0.38269 0.1004-0.89712 0.1004-0.94731 0-1.606-0.6274-0.65873-0.6274-0.65873-1.5998 0-0.7967 0.33877-1.2861 0.34505-0.4956 0.97868-0.7779 0.63991-0.2823 1.537-0.3827 0.89712-0.1004 1.926-0.1505v-0.182q0-0.4015-0.14429-0.665-0.13802-0.2635-0.40151-0.414-0.25094-0.1443-0.60226-0.1945-0.35132-0.05-0.73401-0.05-0.46425 0-1.0351 0.1255-0.5709 0.1192-1.1794 0.3513h-0.06274v-1.1983q0.34505-0.094 0.9975-0.207 0.65246-0.1129 1.2861-0.1129 0.74028 0 1.2861 0.1254 0.55208 0.1192 0.95359 0.4141 0.39524 0.2886 0.60227 0.7466 0.20703 0.4579 0.20703 1.1355v4.7554zm-1.1732-1.7253v-1.9511q-0.53953 0.031-1.2735 0.094-0.72774 0.063-1.1543 0.182-0.50816 0.1443-0.82184 0.4517-0.31368 0.3011-0.31368 0.8344 0 0.6022 0.36387 0.9096 0.36387 0.3012 1.1104 0.3012 0.62109 0 1.1355-0.2384 0.51444-0.2447 0.95359-0.5835z" style="fill:#ffffff"/>
      <path id="path4942" d="m65.513 1022.7h-1.1794v-9.7618h1.1794v9.7618z" style="fill:#ffffff"/>
      <path id="path4944" d="m73.674 1019.4h-5.1632q0 0.6462 0.19448 1.1292 0.19448 0.4768 0.53326 0.7842 0.32623 0.3012 0.77165 0.4517 0.4517 0.1506 0.99123 0.1506 0.71519 0 1.4367-0.2823 0.72774-0.2886 1.0351-0.5646h0.06274v1.2861q-0.59599 0.2509-1.2171 0.4203-0.62109 0.1694-1.3049 0.1694-1.7441 0-2.7227-0.9411-0.97868-0.9473-0.97868-2.6851 0-1.7189 0.93477-2.729 0.94104-1.01 2.4718-1.01 1.4178 0 2.1832 0.8281 0.77165 0.8281 0.77165 2.3526v0.6399zm-1.1481-0.9034q-0.0063-0.9285-0.47052-1.4367-0.45797-0.5081-1.399-0.5081-0.94731 0-1.5119 0.5583-0.55835 0.5584-0.63363 1.3865h4.0151z" style="fill:#ffffff"/>
      <path id="path4946" d="m85.161 1022.3q-0.58972 0.2823-1.123 0.4392-0.52698 0.1568-1.123 0.1568-0.75911 0-1.3927-0.2196-0.63363-0.2258-1.0853-0.6775-0.45797-0.4517-0.70892-1.1418-0.25094-0.6901-0.25094-1.6123 0-1.719 0.94104-2.6977 0.94731-0.9787 2.4969-0.9787 0.60227 0 1.1794 0.1694 0.58344 0.1694 1.0665 0.4141v1.3112h-0.06274q-0.53953-0.4204-1.1167-0.6462-0.5709-0.2259-1.1167-0.2259-1.0038 0-1.5872 0.6776-0.57717 0.6713-0.57717 1.9762 0 1.2672 0.56462 1.9511 0.5709 0.6775 1.5998 0.6775 0.3576 0 0.72774-0.094t0.665-0.2447q0.25722-0.1317 0.48307-0.276 0.22585-0.1506 0.3576-0.2572h0.06274v1.2986z" style="fill:#ffffff"/>
      <path id="path4948" d="m92.652 1019.2q0 1.7127-0.8783 2.7039-0.8783 0.9913-2.3526 0.9913-1.4868 0-2.3651-0.9913-0.87203-0.9912-0.87203-2.7039t0.87203-2.7039q0.8783-0.9975 2.3651-0.9975 1.4743 0 2.3526 0.9975 0.8783 0.9912 0.8783 2.7039zm-1.2171 0q0-1.3614-0.53326-2.0201-0.53326-0.665-1.4806-0.665-0.95986 0-1.4931 0.665-0.52698 0.6587-0.52698 2.0201 0 1.3175 0.53326 2.0013 0.53326 0.6775 1.4868 0.6775 0.94104 0 1.4743-0.6712 0.53953-0.6776 0.53953-2.0076z" style="fill:#ffffff"/>
      <path id="path4950" d="m100.34 1022.7h-1.1794v-3.99q0-0.4831-0.05646-0.9034-0.05646-0.4266-0.20703-0.665-0.15684-0.2635-0.4517-0.389-0.29486-0.1317-0.76538-0.1317-0.48307 0-1.01 0.2383-0.52698 0.2384-1.01 0.6086v5.2322h-1.1794v-7.0076h1.1794v0.7779q0.55208-0.458 1.1418-0.7152t1.2108-0.2572q1.1355 0 1.7315 0.6838 0.59599 0.6838 0.59599 1.9699v4.5484z" style="fill:#ffffff"/>
      <path id="path4952" d="m108.59 1019.2q0 1.7127-0.87831 2.7039-0.8783 0.9913-2.3526 0.9913-1.4868 0-2.3652-0.9913-0.87203-0.9912-0.87203-2.7039t0.87203-2.7039q0.87831-0.9975 2.3652-0.9975 1.4743 0 2.3526 0.9975 0.87831 0.9912 0.87831 2.7039zm-1.2171 0q0-1.3614-0.53326-2.0201-0.53326-0.665-1.4806-0.665-0.95986 0-1.4931 0.665-0.52698 0.6587-0.52698 2.0201 0 1.3175 0.53326 2.0013 0.53325 0.6775 1.4868 0.6775 0.94104 0 1.4743-0.6712 0.53953-0.6776 0.53953-2.0076z" style="fill:#ffffff"/>
      <path id="path4954" d="m115.43 1020.7q0 0.9598-0.79674 1.5746-0.79048 0.6149-2.1644 0.6149-0.77792 0-1.4304-0.182-0.64618-0.1882-1.0853-0.4078v-1.3237h0.0627q0.55835 0.4203 1.2422 0.6713 0.68382 0.2447 1.3112 0.2447 0.77793 0 1.2171-0.251 0.43915-0.2509 0.43915-0.7905 0-0.414-0.23839-0.6273-0.2384-0.2133-0.91595-0.3639-0.25094-0.057-0.65873-0.1317-0.40151-0.075-0.73401-0.1632-0.92222-0.2446-1.3112-0.7151-0.38269-0.4768-0.38269-1.1669 0-0.4329 0.17566-0.8156 0.18193-0.3827 0.5458-0.6838 0.35132-0.2949 0.89085-0.4643 0.54581-0.1756 1.2171-0.1756 0.62736 0 1.2673 0.1568 0.64618 0.1506 1.0728 0.3702v1.2609h-0.0627q-0.4517-0.3325-1.0979-0.5583-0.64618-0.2321-1.2673-0.2321-0.64618 0-1.0916 0.2509-0.44543 0.2447-0.44543 0.734 0 0.4329 0.26976 0.6525 0.2635 0.2196 0.85321 0.3576 0.32623 0.075 0.72774 0.1505 0.40779 0.075 0.67755 0.1381 0.82184 0.1882 1.2673 0.6461 0.44542 0.4643 0.44542 1.2297z" style="fill:#ffffff"/>
      <path id="path4956" d="m122.3 1022.3q-0.58972 0.2823-1.123 0.4392-0.52698 0.1568-1.123 0.1568-0.75911 0-1.3927-0.2196-0.63363-0.2258-1.0853-0.6775-0.45798-0.4517-0.70892-1.1418-0.25095-0.6901-0.25095-1.6123 0-1.719 0.94104-2.6977 0.94732-0.9787 2.4969-0.9787 0.60226 0 1.1794 0.1694 0.58344 0.1694 1.0665 0.4141v1.3112h-0.0627q-0.53953-0.4204-1.1167-0.6462-0.5709-0.2259-1.1167-0.2259-1.0038 0-1.5872 0.6776-0.57717 0.6713-0.57717 1.9762 0 1.2672 0.56462 1.9511 0.5709 0.6775 1.5998 0.6775 0.3576 0 0.72774-0.094t0.665-0.2447q0.25722-0.1317 0.48307-0.276 0.22585-0.1506 0.35759-0.2572h0.0627v1.2986z" style="fill:#ffffff"/>
      <path id="path4958" d="m129.79 1019.2q0 1.7127-0.8783 2.7039-0.87831 0.9913-2.3526 0.9913-1.4868 0-2.3652-0.9913-0.87203-0.9912-0.87203-2.7039t0.87203-2.7039q0.8783-0.9975 2.3652-0.9975 1.4743 0 2.3526 0.9975 0.8783 0.9912 0.8783 2.7039zm-1.2171 0q0-1.3614-0.53325-2.0201-0.53326-0.665-1.4806-0.665-0.95986 0-1.4931 0.665-0.52698 0.6587-0.52698 2.0201 0 1.3175 0.53325 2.0013 0.53326 0.6775 1.4868 0.6775 0.94104 0 1.4743-0.6712 0.53953-0.6776 0.53953-2.0076z" style="fill:#ffffff"/>
      <path id="path4960" d="m142.31 1019.2q0 0.8532-0.24467 1.5621-0.24467 0.7026-0.69009 1.192-0.41406 0.4642-0.97869 0.7214-0.55835 0.251-1.1857 0.251-0.5458 0-0.99123-0.1192-0.43915-0.1192-0.89712-0.3701v2.936h-1.1794v-9.5923h1.1794v0.734q0.47052-0.3953 1.054-0.6588 0.58972-0.2697 1.2547-0.2697 1.2673 0 1.9699 0.9598 0.70891 0.9536 0.70891 2.6538zm-1.2171 0.031q0-1.2672-0.43288-1.8946-0.43287-0.6273-1.33-0.6273-0.50816 0-1.0226 0.2195-0.51443 0.2196-0.98495 0.5772v3.9712q0.50189 0.2258 0.85948 0.3074 0.36387 0.082 0.82184 0.082 0.98496 0 1.537-0.665 0.55207-0.6651 0.55207-1.97z" style="fill:#ffffff"/>
      <path id="path4962" d="m150.01 1019.4h-5.1632q0 0.6462 0.19449 1.1292 0.19448 0.4768 0.53325 0.7842 0.32623 0.3012 0.77165 0.4517 0.4517 0.1506 0.99123 0.1506 0.71519 0 1.4367-0.2823 0.72774-0.2886 1.0351-0.5646h0.0627v1.2861q-0.59599 0.2509-1.2171 0.4203-0.62109 0.1694-1.3049 0.1694-1.7441 0-2.7227-0.9411-0.97868-0.9473-0.97868-2.6851 0-1.7189 0.93476-2.729 0.94104-1.01 2.4718-1.01 1.4178 0 2.1832 0.8281 0.77165 0.8281 0.77165 2.3526v0.6399zm-1.1481-0.9034q-0.006-0.9285-0.47052-1.4367-0.45797-0.5081-1.399-0.5081-0.94732 0-1.5119 0.5583-0.55835 0.5584-0.63364 1.3865h4.0151z" style="fill:#ffffff"/>
      <path id="path4964" d="m152.99 1022.7h-1.1794v-9.7618h1.1794v9.7618z" style="fill:#ffffff"/>
      <path id="path4966" d="m161.26 1019.2q0 1.7127-0.8783 2.7039-0.8783 0.9913-2.3526 0.9913-1.4868 0-2.3652-0.9913-0.87203-0.9912-0.87203-2.7039t0.87203-2.7039q0.87831-0.9975 2.3652-0.9975 1.4743 0 2.3526 0.9975 0.8783 0.9912 0.8783 2.7039zm-1.2171 0q0-1.3614-0.53326-2.0201-0.53326-0.665-1.4806-0.665-0.95986 0-1.4931 0.665-0.52698 0.6587-0.52698 2.0201 0 1.3175 0.53326 2.0013 0.53325 0.6775 1.4868 0.6775 0.94104 0 1.4743-0.6712 0.53953-0.6776 0.53953-2.0076z" style="fill:#ffffff"/>
      <path id="path4968" d="m72.745 1027-3.8995 14.48h-4.1329l-2.5964-9.4327-2.5283 9.4327h-4.1329l-3.8995-14.48h3.8995l2.2269 9.9675 2.6645-9.9675h3.7244l2.5381 9.9675 2.3339-9.9675h3.8022z" style="fill:#ffffff"/>
      <path id="path4970" d="m86.019 1041.4h-3.5202v-5.4165q0-0.6613-0.06807-1.3128-0.06807-0.6613-0.23338-0.9724-0.19449-0.3598-0.57374-0.5251-0.36953-0.1654-1.0405-0.1654-0.4765 0-0.97244 0.1556-0.48622 0.1556-1.06 0.496v7.7406h-3.5008v-15.131h3.5008v5.4165q0.93354-0.7293 1.7893-1.1183 0.86547-0.389 1.9157-0.389 1.7698 0 2.7617 1.0308 1.0016 1.0308 1.0016 3.0827v7.1085z" style="fill:#ffffff"/>
      <path id="path4972" d="m95.86 1038.6v-2.2755q-0.70988 0.058-1.5365 0.1653-0.82657 0.097-1.2544 0.2334-0.52512 0.1653-0.80712 0.4862-0.27228 0.3112-0.27228 0.8266 0 0.3404 0.05835 0.5543t0.29173 0.4084q0.22366 0.1945 0.53484 0.2918 0.31118 0.088 0.97244 0.088 0.52512 0 1.06-0.214 0.54457-0.2139 0.95299-0.564zm0 1.6921q-0.28201 0.2139-0.70016 0.5154-0.41815 0.3014-0.78768 0.4765-0.51539 0.2333-1.0697 0.3403-0.55429 0.1167-1.2155 0.1167-1.5559 0-2.6061-0.9627t-1.0502-2.4603q0-1.1961 0.53484-1.9546t1.517-1.1961q0.97244-0.4376 2.4116-0.6223 1.4392-0.1848 2.9854-0.2723v-0.058q0-0.9043-0.73905-1.2447-0.73905-0.3501-2.1783-0.3501-0.86547 0-1.8476 0.3112-0.98216 0.3015-1.41 0.4668h-0.3209v-2.6353q0.55429-0.1459 1.799-0.3404 1.2544-0.2042 2.5089-0.2042 2.9854 0 4.3079 0.9238 1.3322 0.9141 1.3322 2.8784v7.4295h-3.4716v-1.1572z" style="fill:#ffffff"/>
      <path id="path4974" d="m109.53 1041.3q-0.56401 0.1459-1.1961 0.2237-0.63208 0.087-1.5462 0.087-2.0421 0-3.0437-0.8266-0.99189-0.8265-0.99189-2.8298v-5.1053h-1.4392v-2.3727h1.4392v-3.1215h3.5008v3.1215h3.2771v2.3727h-3.2771v3.8704q0 0.5737 0.01 1.0016 0.01 0.4278 0.15559 0.7682 0.13614 0.3403 0.47649 0.5446 0.35008 0.1944 1.0113 0.1944 0.27228 0 0.70988-0.1167 0.44732-0.1166 0.62236-0.2139h0.29173v2.4019z" style="fill:#ffffff"/>
      <path id="path4976" d="m121.1 1038q0 1.692-1.517 2.7325-1.517 1.0308-4.1523 1.0308-1.4587 0-2.645-0.2722-1.1864-0.2723-1.906-0.603v-2.8784h0.3209q0.26256 0.1848 0.60292 0.4084 0.35007 0.214 0.98216 0.4668 0.54456 0.2237 1.235 0.389 0.69043 0.1556 1.4781 0.1556 1.0308 0 1.5267-0.2237 0.49594-0.2334 0.49594-0.6807 0-0.3987-0.29173-0.5737-0.29173-0.1848-1.1086-0.3501-0.38897-0.087-1.06-0.1848-0.66125-0.1069-1.2058-0.2528-1.4878-0.389-2.2074-1.2058-0.71961-0.8266-0.71961-2.0519 0-1.5753 1.4878-2.6158 1.4976-1.0503 4.0842-1.0503 1.2253 0 2.3436 0.2529 1.128 0.2431 1.7601 0.5251v2.7617h-0.30145q-0.77795-0.5348-1.7796-0.8655-0.99188-0.3403-2.0129-0.3403-0.84602 0-1.4295 0.2334-0.57374 0.2334-0.57374 0.6612 0 0.389 0.26256 0.5932t1.235 0.4084q0.53484 0.107 1.1475 0.214 0.62236 0.097 1.2447 0.2528 1.3809 0.3598 2.0421 1.1378 0.66126 0.7682 0.66126 1.9254z" style="fill:#ffffff"/>
      <path id="path4978" d="m137.01 1041.4h-3.8606l-1.0016-2.9271h-5.3679l-1.0016 2.9271h-3.7633l5.3484-14.48h4.2982l5.3484 14.48zm-5.7666-5.5818-1.7796-5.1928-1.7796 5.1928h3.5591z" style="fill:#ffffff"/>
      <path id="path4980" d="m150.32 1035.8q0 1.3517-0.41814 2.4603-0.40843 1.1086-1.0794 1.8282-0.70016 0.7585-1.5851 1.1474-0.88491 0.389-1.8962 0.389-0.93354 0-1.5851-0.2042-0.65154-0.1945-1.3322-0.5543v4.551h-3.5008v-14.927h3.5008v1.1377q0.80713-0.6418 1.6434-1.0405 0.84602-0.3987 1.9449-0.3987 2.0421 0 3.1702 1.4976 1.1378 1.4976 1.1378 4.1134zm-3.6077 0.068q0-1.5948-0.54457-2.3144-0.54456-0.7196-1.7212-0.7196-0.49595 0-1.0211 0.1556-0.52512 0.1458-1.0016 0.4278v5.4943q0.35008 0.1362 0.74878 0.1751 0.3987 0.039 0.78768 0.039 1.3906 0 2.0713-0.8071 0.68071-0.8168 0.68071-2.4505z" style="fill:#ffffff"/>
      <path id="path4982" d="m164.24 1035.8q0 1.3517-0.41815 2.4603-0.40842 1.1086-1.0794 1.8282-0.70015 0.7585-1.5851 1.1474-0.88492 0.389-1.8962 0.389-0.93355 0-1.5851-0.2042-0.65153-0.1945-1.3322-0.5543v4.551h-3.5008v-14.927h3.5008v1.1377q0.80712-0.6418 1.6434-1.0405 0.84602-0.3987 1.9449-0.3987 2.0421 0 3.1702 1.4976 1.1378 1.4976 1.1378 4.1134zm-3.6078 0.068q0-1.5948-0.54456-2.3144-0.54457-0.7196-1.7212-0.7196-0.49594 0-1.0211 0.1556-0.52511 0.1458-1.0016 0.4278v5.4943q0.35008 0.1362 0.74878 0.1751 0.3987 0.039 0.78767 0.039 1.3906 0 2.0713-0.8071 0.6807-0.8168 0.6807-2.4505z" style="fill:#ffffff"/>
    </g>
    <g id="g5125" style="fill:#ffffff">
      <path id="path4220" d="m40.088 17.564c0.261 1.079 0.424 2.193 0.486 3.336 3.094 2.444 5.088 6.229 5.088 10.469 0 2.692-0.79 5.205-2.189 7.322l1.615 5.133-4.918-1.652c-2.189 1.615-4.845 2.549-7.752 2.549-3.804 0-7.227-1.635-9.639-4.235-0.313 0.016-0.622 0.049-0.939 0.049-0.803 0-1.594-0.052-2.373-0.152 2.837 4.152 7.587 6.874 12.988 6.851 2.943 0 5.741-0.826 8.109-2.261l8.436 2.871-2.836-8.758c1.256-2.297 1.975-4.916 1.975-7.68 0-5.947-3.249-11.126-8.051-13.842z" transform="translate(0 1002.4)" style="fill:#ffffff"/>
      <path id="path4214" d="m39.251 1023.1c0 10.285-8.4152 18.615-18.785 18.615-3.2726 0-6.3751-0.85-9.0952-2.3375l-10.37 3.3575 3.4001-9.9877c-1.7-2.805-2.6776-6.1201-2.6776-9.6052-0.042535-10.328 8.3727-18.658 18.743-18.658s18.785 8.3302 18.785 18.615zm-18.785-15.6c-8.7127 0-15.768 7.0127-15.768 15.64 0 3.4426 1.105 6.5877 3.0176 9.1802l-1.955 5.8226 6.0776-1.9125c2.5075 1.6575 5.4826 2.5926 8.6702 2.5926 8.6702 0 15.768-7.0127 15.768-15.683 0-8.6701-7.0976-15.64-15.81-15.64zm9.4777 19.933c-0.1275-0.17-0.425-0.2975-0.89252-0.5525-0.46751-0.2125-2.7201-1.3175-3.1451-1.4875-0.42501-0.17-0.72252-0.2125-1.02 0.2125-0.29751 0.4675-1.19 1.4875-1.445 1.785-0.25501 0.2975-0.55251 0.34-0.97752 0.1275-0.46751-0.2125-1.955-0.7225-3.6976-2.2525-1.36-1.1901-2.295-2.7201-2.55-3.1451-0.25501-0.4675-0.04254-0.7225 0.2125-0.935 0.2125-0.2125 0.46751-0.5525 0.68002-0.8075 0.2125-0.255 0.2975-0.4675 0.46751-0.7651 0.17-0.2975 0.08496-0.5525-0.04254-0.8075-0.12751-0.2125-1.02-2.465-1.4025-3.4-0.38251-0.8925-0.76502-0.765-1.02-0.765-0.255 0-0.595-0.043-0.89252-0.043-0.2975 0-0.80752 0.1275-1.2325 0.5525-0.42501 0.4675-1.615 1.5726-1.615 3.8251s1.6575 4.4201 1.87 4.7176 3.1876 5.0576 7.8627 6.8851c4.6751 1.8276 4.6751 1.2326 5.5251 1.1476 0.85002-0.085 2.7201-1.1051 3.1026-2.1676 0.34-1.02 0.34-1.9125 0.2125-2.125z" stroke-width="0" style="fill:#ffffff"/>
    </g>
  </g>
</svg>