<?xml version="1.0" encoding="UTF-8" ?>
<!DOCTYPE svg PUBLIC "-//W3C//DTD SVG 1.1//EN" "http://www.w3.org/Graphics/SVG/1.1/DTD/svg11.dtd">
<svg width="180pt" height="36pt" viewBox="0 0 180 36" version="1.1" xmlns="http://www.w3.org/2000/svg">
<g id="#94d961fe">
<path fill="#94d961" opacity="1.00" d=" M 44.26 1.82 C 47.54 1.82 50.81 1.82 54.08 1.83 C 54.09 12.61 54.09 23.39 54.08 34.17 C 50.81 34.18 47.53 34.18 44.26 34.17 C 44.26 23.39 44.26 12.61 44.26 1.82 Z" />
</g>
<g id="#25aefdfe">
<path fill="#25aefd" opacity="1.00" d=" M 29.87 9.23 C 33.13 9.22 36.39 9.22 39.66 9.18 C 39.71 17.51 39.67 25.85 39.68 34.18 C 36.41 34.18 33.14 34.18 29.87 34.17 C 29.87 25.86 29.86 17.54 29.87 9.23 Z" />
</g>
<g id="#fafafafa">
<path fill="#fafafa" opacity="0.98" d=" M 65.22 12.23 C 70.34 9.68 78.49 12.45 78.19 18.99 C 78.29 25.85 69.60 29.09 64.30 25.67 C 59.43 22.78 59.88 14.40 65.22 12.23 M 66.41 14.44 C 62.88 17.18 64.08 24.71 69.02 24.90 C 73.14 25.41 75.64 20.52 74.36 17.00 C 73.58 13.64 69.02 12.22 66.41 14.44 Z" />
<path fill="#fafafa" opacity="0.98" d=" M 83.56 13.50 C 86.97 10.54 92.22 10.85 95.99 12.93 C 95.54 13.42 94.63 14.41 94.18 14.90 C 92.33 13.80 90.19 12.94 88.02 13.57 C 83.98 14.94 83.60 20.90 86.35 23.66 C 88.06 25.45 90.70 24.72 92.87 24.68 C 92.90 22.96 92.92 21.23 92.93 19.51 C 93.78 19.49 95.46 19.45 96.30 19.43 C 96.31 21.57 96.30 23.71 96.29 25.85 C 92.65 26.86 88.50 27.68 84.94 25.99 C 80.44 23.69 79.82 16.76 83.56 13.50 Z" />
<path fill="#fafafa" opacity="0.98" d=" M 99.64 11.72 C 103.19 11.75 106.75 11.76 110.31 11.74 C 110.33 12.22 110.38 13.18 110.41 13.66 C 107.91 13.70 105.42 13.68 102.92 13.70 C 102.92 14.71 102.92 16.73 102.92 17.74 C 104.89 17.76 106.86 17.76 108.83 17.77 C 108.82 18.25 108.81 19.22 108.81 19.70 C 106.85 19.70 104.89 19.70 102.93 19.71 C 102.92 21.38 102.92 23.04 102.91 24.71 C 105.51 24.74 108.11 24.73 110.71 24.74 L 110.58 26.71 C 106.94 26.65 103.29 26.66 99.65 26.72 C 99.62 21.72 99.64 16.72 99.64 11.72 Z" />
<path fill="#fafafa" opacity="0.98" d=" M 113.96 13.09 C 117.28 10.42 122.12 11.13 125.66 12.97 C 125.21 13.48 124.30 14.52 123.84 15.03 C 121.74 13.45 117.94 12.22 116.30 15.06 C 118.43 18.70 123.97 17.47 126.11 21.09 C 127.17 22.99 125.91 25.31 124.01 26.05 C 120.35 27.65 116.07 26.91 112.73 24.88 C 113.50 24.25 114.29 23.61 115.07 22.98 C 117.19 24.88 121.83 26.22 123.17 22.85 C 121.88 20.21 118.32 20.41 116.02 19.04 C 113.60 18.36 112.09 15.08 113.96 13.09 Z" />
<path fill="#fafafa" opacity="0.98" d=" M 128.22 11.76 C 133.20 11.73 138.18 11.75 143.16 11.75 C 143.19 12.23 143.23 13.18 143.26 13.66 C 141.30 13.68 139.35 13.67 137.40 13.67 C 137.38 18.00 137.37 22.33 137.41 26.67 C 136.30 26.68 135.20 26.69 134.10 26.69 C 134.09 22.35 134.09 18.02 134.09 13.68 C 132.17 13.68 130.26 13.69 128.34 13.71 C 128.31 13.22 128.25 12.25 128.22 11.76 Z" />
<path fill="#fafafa" opacity="0.98" d=" M 148.44 12.76 C 153.51 9.40 162.77 11.99 162.35 19.03 C 162.49 25.91 153.67 29.09 148.43 25.63 C 144.00 22.92 143.97 15.45 148.44 12.76 M 151.15 14.04 C 147.07 16.43 147.95 24.41 153.01 24.89 C 156.81 25.54 159.53 21.35 158.74 17.92 C 158.50 14.37 154.19 12.16 151.15 14.04 Z" />
<path fill="#fafafa" opacity="0.98" d=" M 165.67 11.73 C 169.53 12.07 174.44 10.68 177.42 13.84 C 179.27 16.79 176.53 19.78 173.71 20.55 C 175.63 22.55 177.50 24.60 179.38 26.64 C 178.10 26.67 176.83 26.68 175.56 26.68 C 173.38 24.71 172.13 20.64 168.92 20.53 C 168.93 22.57 168.94 24.62 168.94 26.66 C 167.85 26.68 166.76 26.70 165.67 26.72 C 165.66 21.72 165.66 16.72 165.67 11.73 M 168.89 13.63 C 168.94 15.35 169.04 17.07 169.13 18.80 C 171.42 18.72 175.49 18.41 174.66 15.07 C 173.46 13.12 170.79 13.92 168.89 13.63 Z" />
</g>
<g id="#feb748fe">
<path fill="#feb748" opacity="1.00" d=" M 16.17 16.24 C 19.40 16.26 22.63 16.27 25.85 16.24 C 25.88 22.22 25.87 28.20 25.87 34.18 C 22.63 34.18 19.39 34.18 16.16 34.18 C 16.16 28.20 16.14 22.22 16.17 16.24 Z" />
</g>
<g id="#fe5e5bfe">
<path fill="#fe5e5b" opacity="1.00" d=" M 1.54 22.32 C 4.79 22.36 8.04 22.36 11.29 22.32 C 11.32 26.27 11.31 30.23 11.30 34.18 C 8.05 34.17 4.79 34.17 1.54 34.18 C 1.53 30.23 1.53 26.28 1.54 22.32 Z" />
</g>
</svg>
